<svg width="19" height="11" viewBox="0 0 19 11" fill="none" xmlns="http://www.w3.org/2000/svg">
<path d="M0.627792 5.01213H16.1973L12.1674 1.35357C12.0885 1.25719 12.0467 1.13584 12.0494 1.01135C12.0521 0.886871 12.0991 0.767437 12.1821 0.674559C12.265 0.58168 12.3783 0.521458 12.5017 0.504736C12.6251 0.488014 12.7504 0.515891 12.8551 0.583348L17.834 5.09465C17.8898 5.14219 17.9346 5.2012 17.9655 5.26767C17.9964 5.33414 18.0125 5.40648 18.0128 5.47976C18.0106 5.55071 17.9935 5.6204 17.9627 5.68435C17.9319 5.74831 17.8881 5.80511 17.834 5.85112L12.8551 10.3762C12.7591 10.4575 12.637 10.5014 12.5112 10.5C12.4392 10.4997 12.3681 10.485 12.3019 10.4566C12.2357 10.4282 12.1759 10.3869 12.1261 10.3349C12.0343 10.2358 11.9833 10.1056 11.9833 9.97044C11.9833 9.83529 12.0343 9.70512 12.1261 9.60596L16.101 6.04368H0.627792C0.489176 6.04368 0.356236 5.98861 0.258221 5.89059C0.160204 5.79258 0.105139 5.65964 0.105139 5.52102C0.105114 5.45302 0.118721 5.3857 0.145151 5.32305C0.171581 5.26039 0.210299 5.20367 0.25902 5.15623C0.307741 5.10879 0.365479 5.0716 0.428818 5.04685C0.492155 5.0221 0.559814 5.01029 0.627792 5.01213Z" fill="black"/>
</svg>
