<svg width="18" height="11" viewBox="0 0 18 11" fill="none" xmlns="http://www.w3.org/2000/svg">
<path d="M17.4268 5.01213H1.85727L5.88719 1.35357C5.96602 1.25719 6.00786 1.13584 6.00517 1.01135C6.00248 0.886871 5.95544 0.767437 5.87251 0.674559C5.78958 0.58168 5.67622 0.521458 5.55283 0.504736C5.42945 0.488014 5.30415 0.515891 5.19949 0.583348L0.22055 5.09465C0.164776 5.14219 0.119925 5.2012 0.089066 5.26767C0.0582065 5.33414 0.042066 5.40648 0.041748 5.47976C0.0440045 5.55071 0.0610776 5.6204 0.0918707 5.68435C0.122664 5.74831 0.166496 5.80511 0.22055 5.85112L5.19949 10.3762C5.29548 10.4575 5.41756 10.5014 5.54334 10.5C5.61532 10.4997 5.68651 10.485 5.75268 10.4566C5.81884 10.4282 5.87862 10.3869 5.92845 10.3349C6.02028 10.2358 6.0713 10.1056 6.0713 9.97044C6.0713 9.83529 6.02028 9.70512 5.92845 9.60596L1.95355 6.04368H17.4268C17.5654 6.04368 17.6983 5.98861 17.7963 5.89059C17.8944 5.79258 17.9494 5.65964 17.9494 5.52102C17.9495 5.45302 17.9358 5.3857 17.9094 5.32305C17.883 5.26039 17.8443 5.20367 17.7955 5.15623C17.7468 5.10879 17.6891 5.0716 17.6257 5.04685C17.5624 5.0221 17.4948 5.01029 17.4268 5.01213Z" fill="black"/>
</svg>
